<?xml version="1.0" standalone="no"?>
<!DOCTYPE svg PUBLIC "-//W3C//DTD SVG 20010904//EN"
 "http://www.w3.org/TR/2001/REC-SVG-20010904/DTD/svg10.dtd">
<svg version="1.0" xmlns="http://www.w3.org/2000/svg"
 width="1920.000000pt" height="1080.000000pt" viewBox="0 0 1920.000000 1080.000000"
 preserveAspectRatio="xMidYMid meet">
<metadata>
Created by potrace 1.15, written by Peter Selinger 2001-2017
</metadata>
<g transform="translate(0.000000,1080.000000) scale(0.100000,-0.100000)"
fill="#000000" stroke="none">
<path d="M14849 10372 c-108 -80 -152 -116 -229 -186 -47 -42 -114 -100 -150
-130 -67 -55 -234 -225 -399 -404 -51 -56 -100 -102 -107 -102 -8 0 -32 13
-53 28 -60 44 -270 120 -386 142 -28 4 -97 20 -155 33 -234 56 -444 77 -710
73 -168 -3 -200 -1 -230 14 -57 28 -121 40 -162 31 -59 -14 -124 -57 -155
-104 -22 -32 -42 -47 -83 -64 -110 -44 -249 -114 -365 -185 -16 -10 -37 -21
-45 -25 -18 -8 -137 -86 -267 -175 -220 -151 -461 -398 -525 -538 -39 -85 -75
-238 -63 -267 7 -17 7 -17 15 2 4 12 13 54 19 95 7 41 16 79 21 84 6 6 10 17
10 25 0 8 25 55 56 105 60 96 170 217 266 292 31 24 63 50 70 57 16 15 94 77
123 97 63 44 265 176 295 193 19 11 71 40 115 65 182 103 216 116 233 85 9
-15 16 -11 55 30 25 25 58 49 74 52 15 4 46 13 68 20 54 19 198 55 265 67 90
16 158 5 255 -41 48 -23 90 -41 94 -41 3 0 31 -16 60 -36 30 -19 100 -62 155
-95 237 -141 406 -310 489 -489 52 -112 65 -158 57 -192 -9 -36 -47 -130 -90
-223 -16 -33 -32 -78 -36 -100 -4 -22 -13 -57 -20 -77 -15 -43 0 -53 18 -13 6
14 15 25 19 25 4 0 11 9 14 21 11 35 138 170 224 239 44 36 81 68 81 73 0 10
-45 -18 -102 -65 -26 -21 -49 -38 -52 -38 -3 0 -23 -18 -45 -40 -40 -41 -71
-52 -71 -25 0 20 59 163 80 195 10 14 43 75 75 135 107 204 171 304 263 413
32 37 70 85 86 106 85 114 454 501 488 512 29 9 65 -30 84 -90 54 -176 58
-261 15 -351 -47 -98 -78 -168 -101 -226 -11 -30 -27 -67 -34 -84 -8 -16 -21
-48 -30 -70 -38 -90 -62 -130 -86 -142 l-25 -13 30 0 c17 0 82 7 145 16 133
19 241 15 508 -16 142 -17 208 -10 332 35 58 21 109 42 114 46 6 5 15 9 22 9
7 0 46 16 87 35 64 30 214 88 297 115 14 4 39 15 55 24 17 9 37 16 46 16 17 0
105 27 129 39 8 4 40 14 70 21 30 7 66 16 80 20 14 5 37 11 53 14 15 4 27 11
27 17 0 12 -73 3 -104 -13 -11 -6 -51 -17 -90 -25 -119 -24 -341 -98 -473
-159 -17 -8 -34 -14 -38 -14 -3 0 -26 -9 -51 -20 -48 -22 -66 -30 -164 -67
-196 -74 -280 -89 -370 -63 -29 8 -291 25 -365 23 -11 0 -62 -1 -114 -3 -65
-1 -96 2 -101 10 -4 7 3 33 15 59 13 25 32 71 43 101 51 138 78 201 118 280
24 47 55 117 70 155 15 39 35 89 45 112 21 46 52 128 108 283 21 58 48 127 60
153 23 54 28 116 9 135 -16 16 -17 16 -59 -16z"/>
<path d="M16990 9563 c-63 -7 -137 -18 -165 -23 -27 -5 -97 -14 -155 -21 -110
-12 -210 -32 -238 -49 -30 -17 27 -12 169 16 74 14 161 28 194 30 33 2 77 6
97 9 25 3 41 0 52 -11 21 -20 20 -28 -5 -110 -25 -82 -57 -147 -139 -288 -58
-100 -64 -107 -118 -132 -48 -23 -125 -73 -142 -95 -3 -3 -68 -39 -145 -79
-77 -41 -166 -91 -198 -111 -47 -31 -180 -88 -341 -149 -16 -6 -26 -13 -24
-16 8 -7 188 54 224 77 17 10 51 26 74 34 37 13 46 13 64 2 48 -32 229 -339
275 -467 7 -19 17 -44 21 -55 4 -11 15 -42 25 -70 9 -27 20 -59 25 -70 5 -11
12 -30 15 -43 4 -12 15 -26 25 -32 41 -22 55 46 38 174 -30 220 -119 561 -174
667 -7 15 -14 33 -14 38 0 19 53 59 87 66 32 6 39 2 92 -52 68 -70 111 -123
179 -225 57 -85 171 -305 198 -383 10 -28 36 -104 58 -169 23 -66 46 -121 52
-123 22 -7 42 27 48 84 5 41 1 91 -14 168 -32 168 -38 215 -27 222 12 7 67
-51 67 -72 0 -7 9 -29 19 -47 29 -48 96 -213 142 -347 50 -144 74 -249 88
-370 6 -51 12 -95 14 -97 2 -3 24 5 48 15 57 26 106 85 171 208 28 54 74 132
102 173 28 41 66 100 84 130 37 62 80 110 97 110 17 0 137 -157 267 -351 65
-97 140 -200 167 -230 58 -64 54 -67 144 69 77 115 88 135 222 402 12 25 32
72 45 105 28 72 37 85 61 85 14 0 57 -44 101 -105 4 -5 18 -23 31 -40 13 -16
40 -59 60 -95 21 -36 42 -72 47 -80 5 -8 24 -41 42 -73 18 -32 39 -68 45 -80
23 -40 14 6 -11 58 -14 27 -37 77 -51 110 -15 33 -33 67 -40 75 -7 8 -26 38
-42 65 -60 107 -172 240 -195 233 -7 -2 -27 -26 -44 -52 -18 -26 -56 -75 -85
-108 -30 -34 -57 -65 -60 -70 -3 -5 -13 -6 -21 -3 -13 5 -15 18 -11 63 2 31 8
68 12 82 9 28 4 50 -10 50 -5 0 -27 -18 -49 -40 -22 -22 -49 -40 -61 -40 -19
0 -20 4 -16 53 7 72 16 123 33 184 8 28 14 58 14 67 0 21 -41 21 -81 1 -16 -9
-34 -13 -39 -10 -22 14 -9 59 63 209 46 95 52 116 27 101 -10 -6 -93 -169 -95
-185 -1 -6 -47 -95 -71 -137 -11 -18 -24 -33 -31 -33 -6 0 -42 34 -80 76 -37
42 -110 114 -162 160 -113 101 -136 107 -178 42 -16 -22 -54 -80 -85 -127 -32
-47 -64 -99 -72 -116 -8 -16 -23 -41 -33 -55 -23 -29 -133 -223 -133 -233 0
-4 -14 -29 -31 -57 -50 -81 -73 -70 -233 114 -48 55 -126 192 -126 221 0 8 -4
15 -8 15 -5 0 -14 12 -21 26 -6 14 -39 62 -74 106 -34 44 -73 99 -86 122 -42
71 -100 148 -172 229 -39 43 -69 83 -66 90 2 7 37 30 76 52 40 21 89 53 110
71 20 18 69 48 107 66 66 33 316 198 397 262 93 74 107 89 107 112 0 13 -9 28
-20 34 -27 14 -382 9 -530 -7z"/>
<path d="M18844 9378 c-28 -31 -37 -58 -20 -58 8 0 16 7 20 15 3 8 11 15 18
15 15 0 88 -50 88 -61 0 -14 86 -134 134 -186 26 -28 60 -72 76 -97 16 -25 32
-46 35 -46 3 0 3 14 1 31 -2 20 -23 53 -67 101 -35 38 -66 75 -69 82 -3 6 -15
22 -27 36 -12 14 -46 61 -75 105 -58 87 -81 100 -114 63z"/>
<path d="M11647 8970 c-96 -85 -276 -361 -394 -607 -34 -72 -63 -137 -63 -143
0 -15 42 -8 132 21 56 18 99 36 265 110 65 29 105 20 116 -26 3 -11 5 -2 6 20
1 22 7 47 14 56 14 19 86 59 105 59 7 0 30 9 50 19 37 19 153 56 281 90 36 9
66 22 68 28 6 16 -32 51 -63 59 -17 4 -66 -7 -152 -35 -70 -23 -136 -46 -147
-51 -77 -37 -152 -49 -172 -29 -7 7 -12 3 -17 -15 -7 -29 -52 -55 -129 -76
-78 -21 -79 -8 -12 122 72 141 98 178 123 171 15 -4 21 4 30 37 13 51 49 105
80 119 13 6 38 11 57 11 19 0 35 4 35 9 0 12 -62 51 -81 51 -8 0 -25 9 -39 20
-34 27 -41 26 -93 -20z"/>
<path d="M14969 8204 c-30 -25 -67 -56 -82 -69 -15 -13 -42 -33 -60 -44 -18
-11 -47 -35 -65 -54 l-34 -35 11 -72 c29 -186 175 -288 333 -235 54 19 88 52
122 121 34 67 41 121 26 186 -19 79 -42 117 -104 175 -31 29 -56 57 -56 63 0
23 -39 7 -91 -36z m9 -125 c21 -39 8 -100 -28 -131 -38 -35 -70 -35 -103 -3
-59 60 -27 157 58 177 25 6 56 -12 73 -43z"/>
<path d="M13291 8216 c-8 -14 -21 -28 -30 -31 -9 -3 -136 2 -281 10 -146 8
-318 15 -383 15 -148 0 -361 -23 -520 -57 -67 -14 -160 -32 -205 -40 -83 -15
-84 -15 -114 7 -17 13 -27 17 -23 11 10 -17 -30 -58 -63 -66 -46 -11 -219 -95
-323 -156 -26 -15 -73 -42 -105 -59 -53 -29 -119 -78 -304 -222 -87 -68 -92
-63 -110 109 -6 54 -15 134 -22 178 -11 77 -12 78 -21 45 -9 -32 -7 -74 19
-375 5 -59 4 -61 -36 -105 -72 -79 -115 -123 -206 -211 -49 -47 -118 -119
-154 -159 -36 -41 -92 -103 -126 -139 -125 -136 -135 -161 -94 -229 37 -60
110 -69 213 -26 97 40 148 57 154 50 9 -9 -35 -111 -129 -292 -81 -156 -102
-214 -80 -214 5 0 47 44 94 98 102 115 136 148 144 139 4 -3 -5 -50 -19 -104
-14 -54 -33 -132 -42 -173 -9 -41 -46 -176 -82 -300 -80 -275 -81 -280 -56
-280 11 0 109 45 219 100 109 55 205 100 212 100 29 0 11 -41 -62 -144 -32
-46 -10 -51 95 -21 52 14 144 35 204 45 61 11 140 28 178 37 48 12 75 14 94 7
26 -9 29 -16 46 -113 23 -139 54 -198 137 -267 147 -123 394 -265 679 -389 52
-22 96 -46 98 -52 3 -7 -15 -24 -39 -39 -24 -15 -44 -31 -46 -35 -2 -5 -7 -9
-11 -9 -12 0 -246 -142 -249 -152 -2 -4 -8 -8 -12 -8 -5 0 -60 -34 -122 -77
-62 -42 -135 -91 -163 -110 -27 -18 -42 -33 -34 -33 9 0 49 22 90 49 81 53
245 159 270 176 9 5 51 30 94 55 42 25 95 60 117 78 22 17 44 32 49 32 4 0 25
11 45 25 73 50 87 48 374 -55 74 -27 152 -51 173 -55 23 -4 43 -14 51 -28 21
-32 66 -195 66 -237 0 -36 -83 -197 -160 -311 -35 -52 -106 -181 -189 -344
-35 -69 -53 -109 -87 -190 -21 -53 -82 -145 -95 -145 -29 0 -81 47 -189 170
-135 155 -286 297 -346 328 -42 22 -107 27 -569 50 -123 6 -150 10 -153 22 -2
10 50 55 145 125 81 61 167 127 190 149 24 21 57 46 75 55 17 9 34 22 36 30 3
10 -8 7 -34 -9 -21 -13 -41 -27 -44 -30 -3 -3 -84 -65 -181 -137 -96 -72 -181
-138 -188 -147 -8 -9 -18 -16 -23 -16 -19 0 -69 -42 -66 -56 2 -12 61 -15 348
-18 355 -4 405 -9 398 -45 -2 -8 -32 -30 -67 -49 -36 -18 -90 -56 -120 -83
-30 -27 -61 -49 -69 -49 -19 0 -112 -51 -112 -61 0 -10 15 -5 80 27 99 48 109
36 92 -103 -7 -54 -18 -138 -23 -188 -11 -98 -30 -129 -87 -140 -15 -3 -63
-15 -107 -26 -178 -44 -225 -43 -225 9 1 27 50 222 64 255 5 9 4 17 -1 17 -12
0 -46 -103 -68 -205 -21 -97 -40 -132 -76 -140 -14 -3 -32 -18 -40 -32 -16
-30 -16 -111 0 -141 20 -38 13 -96 -18 -143 -17 -24 -105 -116 -198 -204 -92
-88 -247 -238 -344 -335 -97 -96 -188 -186 -203 -199 -15 -13 -25 -26 -22 -28
7 -7 59 40 176 157 58 58 126 121 150 141 45 36 334 312 417 397 48 50 87 126
80 156 -3 12 -13 41 -23 66 -21 56 -13 114 19 134 12 8 69 24 127 34 58 11
130 28 160 36 30 9 75 21 100 26 25 6 55 13 68 15 35 8 45 -32 36 -144 -3 -52
-7 -239 -8 -415 l-1 -321 -81 -160 c-45 -88 -93 -180 -108 -205 -14 -25 -51
-93 -80 -151 -59 -115 -75 -144 -129 -232 -51 -84 -86 -127 -103 -127 -8 0
-56 21 -107 46 -85 43 -223 132 -517 335 -63 43 -135 88 -160 100 -51 24 -62
36 -54 62 9 29 -13 19 -61 -26 -44 -42 -45 -45 -45 -103 0 -33 7 -85 16 -115
24 -85 118 -267 179 -346 33 -44 55 -83 55 -98 0 -41 -84 -211 -115 -231 -26
-17 -29 -16 -118 9 -51 14 -110 29 -132 33 -58 9 -213 52 -260 71 -43 18 -123
54 -275 126 -132 62 -136 67 -143 171 -7 106 -21 136 -72 159 -52 24 -82 53
-106 99 -32 63 -25 84 76 198 79 91 96 128 103 225 6 99 -12 167 -66 245 -48
71 -102 100 -188 100 -72 0 -83 7 -109 76 -24 66 -153 262 -198 301 -65 57
-67 57 -627 72 -266 6 -276 6 -303 -14 -37 -26 -80 -102 -107 -190 -46 -145
-75 -191 -153 -239 -41 -25 -92 -82 -109 -122 -7 -18 -12 -84 -13 -174 -1
-163 -14 -208 -80 -281 -56 -62 -68 -94 -62 -163 3 -34 15 -83 27 -111 30 -69
37 -190 16 -271 -23 -88 -20 -118 17 -188 51 -97 108 -148 202 -181 44 -15 91
-38 105 -50 14 -12 36 -29 50 -37 14 -9 57 -39 95 -67 39 -28 133 -82 210
-121 77 -38 163 -87 192 -109 68 -52 346 -189 402 -197 32 -5 57 -18 85 -44
23 -20 52 -45 65 -56 13 -10 52 -44 86 -74 130 -117 289 -247 355 -291 38 -25
89 -62 114 -82 32 -27 54 -37 80 -37 24 0 34 4 30 12 -5 15 -189 148 -204 148
-5 0 -10 4 -10 8 0 4 -12 15 -27 24 -16 9 -42 29 -59 45 -39 35 -58 50 -164
137 -47 37 -89 74 -95 80 -5 6 -36 33 -67 59 -32 28 -55 54 -52 61 3 8 35 38
72 67 37 30 92 80 123 111 63 65 260 353 282 414 8 21 27 66 41 99 14 33 30
90 37 127 7 37 17 69 23 71 6 3 53 -15 104 -39 51 -24 97 -44 102 -44 5 0 33
-11 62 -24 157 -70 257 -106 298 -106 31 0 178 -46 295 -92 195 -77 445 -231
445 -273 0 -12 -25 -62 -71 -145 -14 -25 -67 -120 -118 -211 -51 -92 -101
-175 -112 -185 -10 -9 -19 -25 -19 -34 0 -10 -7 -23 -15 -30 -8 -7 -15 -17
-15 -23 0 -6 -18 -47 -39 -91 -38 -78 -71 -154 -71 -162 0 -2 117 -4 260 -4
196 0 261 3 267 13 10 15 69 57 81 57 14 0 42 -35 42 -53 0 -16 124 -17 1795
-17 l1795 0 -25 53 c-40 84 -125 307 -125 328 0 23 31 43 95 61 72 21 95 12
125 -47 37 -75 110 -230 147 -315 l32 -75 1066 -3 1065 -2 -6 42 c-3 24 -9 66
-14 93 -5 28 -14 97 -20 155 -7 58 -20 159 -31 225 -10 66 -19 143 -19 171 0
69 -16 150 -40 201 -11 24 -20 63 -20 88 0 40 3 47 26 55 14 6 72 10 129 10
58 0 107 4 110 10 3 6 21 10 39 10 50 0 94 61 110 154 9 46 41 78 93 93 148
43 383 124 455 157 31 14 98 38 150 52 51 15 131 41 178 59 47 19 112 41 145
50 177 50 267 81 331 111 39 19 75 34 80 34 5 0 17 9 27 20 23 27 11 25 -58
-10 -32 -16 -70 -30 -83 -30 -13 0 -79 -18 -146 -39 -66 -21 -150 -47 -186
-56 -36 -10 -83 -26 -105 -35 -23 -10 -61 -23 -85 -30 -94 -25 -286 -93 -310
-110 -14 -10 -51 -24 -83 -31 -31 -8 -57 -17 -57 -21 0 -5 -7 -8 -15 -8 -8 0
-23 -4 -33 -10 -25 -14 -152 -49 -205 -56 l-46 -7 -6 37 c-4 20 -5 42 -2 48 7
21 -11 132 -28 164 -8 16 -15 36 -15 45 0 8 -7 24 -15 35 -8 10 -15 27 -15 36
0 16 -51 180 -69 223 -45 105 -169 340 -201 379 -22 26 -40 56 -40 66 0 24 39
54 98 76 53 20 169 80 192 99 8 7 26 16 39 20 14 4 47 22 75 40 28 18 80 47
116 65 36 18 103 57 150 85 47 29 130 76 185 105 55 29 125 69 155 88 30 19
89 53 130 75 41 22 100 54 130 72 62 38 167 87 220 104 56 17 188 39 283 47
48 3 90 10 93 15 7 12 -147 11 -243 -1 -126 -17 -220 -54 -425 -167 -106 -58
-211 -116 -233 -128 -22 -11 -60 -34 -84 -49 -109 -69 -250 -137 -273 -131
-12 4 -50 28 -83 56 -109 89 -199 155 -280 204 -44 26 -99 61 -123 77 -40 28
-42 31 -36 66 10 57 173 379 199 394 7 5 25 29 40 55 15 27 36 58 47 69 11 13
15 24 10 28 -15 9 -64 -52 -123 -151 -65 -109 -130 -233 -122 -233 3 0 -1 -8
-9 -17 -8 -10 -24 -36 -35 -58 -11 -22 -29 -58 -41 -80 -33 -63 -114 -283
-181 -492 -40 -125 -67 -193 -78 -197 -9 -4 -28 1 -42 10 -23 16 -118 91 -131
104 -3 3 -25 21 -50 40 -178 137 -363 304 -692 629 -265 262 -267 263 -292
335 -40 109 -54 186 -70 371 -17 197 -7 349 45 690 22 143 118 471 143 487 6
4 25 5 43 2 19 -4 44 0 66 11 34 16 38 16 66 -1 25 -15 36 -16 67 -6 24 7 43
8 55 2 32 -18 56 -12 61 15 5 25 -14 36 -27 15 -3 -6 -15 -5 -31 2 -19 9 -33
9 -60 -1 -30 -11 -38 -11 -53 3 -23 21 -47 20 -80 -4 l-28 -19 -29 30 c-25 26
-34 30 -65 25 -56 -9 -66 10 -45 84 9 33 17 77 18 98 1 45 -30 351 -38 372 -3
8 -10 65 -15 125 -18 203 -26 280 -34 313 -9 39 5 55 80 90 83 39 125 72 125
98 0 13 -5 24 -11 24 -6 0 -47 -21 -92 -48 -107 -62 -118 -67 -211 -98 -196
-64 -426 -98 -601 -89 -158 9 -436 61 -510 95 -11 5 -54 18 -96 29 -81 20
-221 80 -279 118 -19 13 -40 23 -46 23 -6 0 -43 29 -80 65 -38 35 -72 65 -75
65 -4 0 -12 14 -19 30 -11 27 -10 34 12 68 39 61 50 93 55 167 9 110 -30 224
-104 306 -40 44 -81 69 -112 69 -38 0 -51 37 -51 140 0 52 -7 129 -16 170 -11
51 -16 129 -16 240 -1 158 4 207 39 347 17 71 14 97 -6 59z m-461 -750 c0 -7
-12 -26 -27 -43 -16 -16 -57 -62 -93 -103 -36 -40 -100 -109 -142 -154 -43
-44 -78 -87 -78 -93 0 -7 -4 -13 -9 -13 -5 0 -17 -14 -25 -32 -42 -83 6 -100
81 -29 12 12 26 21 32 21 5 0 11 3 13 8 2 4 23 23 48 42 25 18 53 42 63 52 21
21 43 23 50 6 7 -20 31 10 51 63 19 52 45 80 136 144 133 93 155 105 183 105
43 0 93 -35 123 -86 23 -39 26 -56 30 -171 5 -136 16 -191 67 -313 34 -81 61
-129 121 -214 31 -44 37 -58 27 -70 -13 -15 -78 -38 -156 -55 -27 -5 -92 -24
-144 -41 -52 -16 -100 -30 -106 -30 -7 0 -18 -7 -25 -15 -11 -13 -8 -14 21 -9
19 3 68 16 109 29 67 22 110 32 297 75 63 14 82 6 189 -82 68 -56 91 -88 63
-88 -29 0 21 -383 61 -475 24 -54 90 -263 90 -284 0 -13 -16 -42 -37 -65 -21
-23 -51 -58 -68 -79 -16 -21 -55 -59 -85 -84 -54 -45 -132 -112 -213 -185 -23
-21 -45 -38 -50 -38 -9 0 -77 -50 -122 -92 -27 -24 -61 -42 -90 -48 -5 -1 -13
-7 -17 -15 -11 -19 -139 -104 -215 -143 -44 -22 -80 -33 -112 -33 -82 -2 -98
2 -576 168 -138 47 -325 131 -450 201 -33 19 -85 48 -115 65 -73 40 -193 128
-253 185 -48 45 -76 171 -107 485 -10 91 -32 194 -101 457 -6 25 -22 77 -35
115 -13 39 -26 88 -29 110 -10 64 -65 216 -90 249 -29 40 -54 93 -47 100 9 9
83 7 127 -4 22 -6 71 -17 109 -25 37 -8 74 -19 81 -25 8 -7 11 -38 8 -107 -5
-97 12 -185 32 -173 5 3 9 52 9 110 1 124 13 152 61 148 26 -3 30 -7 33 -38 5
-48 16 -56 47 -36 25 16 25 16 36 -11 6 -15 13 -40 16 -55 5 -25 7 -26 28 -12
25 16 31 12 59 -43 19 -38 21 -104 4 -121 -7 -7 -20 -12 -31 -12 -17 0 -18 -5
-12 -42 9 -54 72 -253 92 -293 20 -38 32 -46 55 -34 15 8 18 22 18 82 0 40 -7
99 -14 132 -27 112 -64 241 -84 286 -60 134 -63 152 -19 111 19 -18 35 -22 85
-22 75 0 71 8 75 -180 2 -109 5 -135 16 -135 12 0 106 129 246 337 13 20 33
42 43 50 11 7 34 38 53 68 18 30 56 87 84 125 28 39 63 90 78 115 41 67 48 78
100 154 26 38 47 75 47 81 0 25 51 45 157 64 59 10 111 19 116 20 4 0 7 -5 7
-13z m-954 -430 c-6 -91 -15 -168 -19 -172 -3 -4 -30 9 -59 28 -29 19 -68 40
-85 47 -18 8 -33 17 -33 21 0 4 20 36 44 71 25 35 68 99 98 142 49 73 53 76
59 53 4 -14 2 -100 -5 -190z m-312 126 c7 -12 -18 -127 -28 -124 -5 2 -12 -1
-15 -6 -7 -11 -115 30 -137 52 -16 17 -7 28 41 48 86 36 129 45 139 30z m-358
-785 c60 -82 122 -372 73 -341 -41 25 -140 324 -122 369 8 22 15 18 49 -28z
m2659 -12 c148 -58 261 -97 295 -102 19 -2 49 -11 66 -19 39 -17 138 -40 228
-53 38 -5 70 -12 73 -15 7 -6 19 -107 38 -311 17 -188 21 -706 5 -736 -7 -13
-21 -19 -43 -19 -25 0 -39 -7 -55 -29 -20 -28 -20 -29 -2 -24 11 3 20 9 20 14
0 5 20 9 44 9 24 0 48 6 54 13 19 23 32 180 32 379 0 218 2 223 57 195 15 -9
35 -24 43 -34 24 -28 56 -124 90 -273 17 -74 40 -171 51 -214 10 -44 19 -90
19 -103 0 -13 11 -69 24 -126 13 -56 29 -142 36 -192 6 -49 18 -110 25 -135 8
-25 17 -67 20 -95 7 -62 31 -169 56 -255 20 -68 24 -116 12 -123 -17 -10 -260
75 -399 139 -105 48 -204 87 -351 140 -68 23 -151 56 -185 72 -81 37 -178 69
-298 97 l-95 22 1 31 c2 27 44 119 104 227 9 17 24 50 33 75 95 268 135 360
157 360 27 0 108 -171 130 -274 13 -63 32 -72 77 -36 17 13 41 20 69 20 47 0
59 14 20 24 -13 3 -31 8 -39 12 -8 3 -21 -1 -28 -9 -14 -13 -53 -37 -62 -37
-6 0 -20 42 -18 54 5 28 -53 160 -171 389 -15 28 -39 90 -53 137 -14 47 -33
100 -41 118 -26 57 -93 265 -100 312 -3 25 -15 81 -25 125 -11 44 -22 127 -26
184 l-6 104 24 -6 c13 -3 56 -17 94 -32z m1378 -109 c16 -17 31 -140 22 -179
-12 -46 -114 -45 -215 1 -71 32 -100 59 -100 92 0 26 5 28 93 50 50 13 108 29
127 36 46 17 56 17 73 0z m-360 -76 c15 -12 27 -27 27 -33 1 -25 79 -97 134
-123 76 -36 81 -48 62 -142 -8 -42 -18 -107 -22 -144 -6 -64 -6 -68 14 -68 12
0 32 -5 46 -11 37 -17 113 -3 138 27 26 29 44 31 51 5 8 -33 -31 -57 -123 -76
-47 -9 -103 -20 -125 -25 -94 -20 -237 -41 -249 -37 -8 3 -27 29 -44 59 -26
45 -41 58 -98 88 -81 41 -76 26 -100 283 -13 135 -14 181 -5 190 12 12 71 20
191 25 65 3 79 0 103 -18z m385 -178 c17 -11 36 -166 23 -191 -8 -15 -17 -17
-55 -11 -25 4 -51 3 -58 -1 -34 -22 -41 -11 -36 54 7 78 27 119 70 140 38 19
39 19 56 9z m-1333 -537 c9 -20 22 -52 29 -73 13 -37 10 -50 -35 -157 -4 -11
-20 -51 -34 -90 -15 -38 -32 -81 -38 -95 -11 -22 -273 -298 -322 -339 -10 -9
-35 -31 -55 -50 -44 -44 -147 -123 -192 -147 -18 -11 -35 -22 -38 -25 -13 -16
-216 -149 -227 -149 -9 0 -13 18 -13 58 -1 52 -15 134 -53 297 -8 34 -11 65
-6 71 5 6 39 26 76 45 38 18 70 36 73 40 3 3 25 17 50 31 99 56 292 188 350
239 19 16 53 43 76 59 23 16 48 40 58 54 9 14 45 48 81 75 36 27 76 62 88 78
12 15 37 44 55 63 17 19 32 38 32 42 0 22 30 4 45 -27z m-360 -1371 c84 -39
66 -177 -28 -212 -29 -12 -40 -12 -64 0 -61 29 -65 146 -8 204 28 28 54 30
100 8z m-1011 -939 c30 -46 14 -134 -36 -190 -49 -56 -93 -44 -105 28 -9 58
64 187 107 187 10 0 25 -11 34 -25z m4331 -107 c39 -27 101 -69 140 -93 38
-24 73 -53 77 -65 8 -22 -18 -55 -176 -219 -184 -190 -229 -231 -259 -231 -9
0 -33 14 -53 32 -35 31 -36 34 -31 83 7 68 71 301 101 366 13 30 34 80 46 112
23 59 43 79 69 69 9 -3 48 -27 86 -54z m-8832 3 c53 -4 100 -10 103 -13 3 -3
-10 -37 -29 -74 -24 -49 -42 -105 -58 -192 l-23 -124 -41 6 c-22 3 -64 14 -93
26 -61 24 -91 25 -98 6 -11 -30 16 -52 94 -80 84 -29 122 -50 122 -68 0 -5
-13 -27 -29 -47 -46 -58 -99 -172 -112 -242 -6 -35 -13 -70 -15 -78 -4 -14
-10 -13 -126 5 -29 5 -39 3 -44 -10 -9 -23 11 -43 64 -62 81 -30 85 -37 52
-119 -35 -86 -51 -176 -43 -248 5 -47 3 -55 -13 -59 -11 -2 -30 -1 -44 3 -44
12 -97 10 -110 -6 -23 -28 6 -45 126 -75 64 -16 70 -30 46 -98 -11 -31 -23
-75 -27 -97 -8 -49 -21 -65 -50 -65 -51 0 -255 95 -306 143 -16 15 -19 25 -12
50 14 56 7 239 -12 282 -25 59 -36 141 -24 173 6 15 24 40 40 56 16 16 32 39
35 52 3 13 10 24 16 24 5 0 16 17 25 38 12 28 16 73 17 182 1 165 12 202 75
248 62 46 148 137 154 163 10 46 106 272 123 290 19 21 56 23 217 10z m420 -6
c159 -3 193 -7 235 -29 69 -36 245 -313 245 -386 0 -17 -18 -49 -49 -88 -27
-34 -68 -96 -90 -139 -23 -43 -49 -79 -57 -81 -8 -2 -40 24 -71 56 -67 70
-138 106 -253 127 -128 24 -205 42 -258 62 -43 16 -51 23 -61 58 -34 113 9
272 103 375 32 37 87 63 106 53 4 -3 72 -6 150 -8z m8762 -226 c30 -17 55 -36
55 -43 0 -7 -11 -22 -23 -35 -34 -31 -379 -203 -389 -193 -7 7 77 104 219 255
25 26 54 47 64 47 11 0 44 -14 74 -31z m-8063 -228 c52 -45 108 -168 110 -238
2 -88 -19 -168 -55 -213 -139 -172 -217 -259 -253 -281 -44 -27 -119 -32 -153
-11 -37 23 -88 81 -107 121 -17 35 -14 121 4 145 5 6 51 93 102 193 94 184
142 250 214 294 47 29 99 25 138 -10z m6303 -58 c44 -24 109 -58 145 -75 36
-16 119 -56 185 -88 101 -49 226 -105 310 -140 77 -32 99 -47 144 -98 28 -31
51 -62 51 -68 0 -6 7 -17 16 -25 54 -45 145 -327 163 -504 12 -123 6 -133
-149 -221 -95 -53 -96 -54 -250 -73 -215 -28 -258 -44 -340 -127 -8 -8 -52
-52 -98 -98 -45 -47 -103 -96 -128 -111 -40 -23 -49 -25 -69 -15 -29 16 -59
81 -50 109 3 11 40 53 81 93 87 84 112 122 93 144 -6 8 -14 14 -18 14 -3 0
-35 -27 -71 -60 -76 -70 -101 -74 -146 -27 -35 36 -103 137 -122 180 -17 40
-15 88 7 122 10 17 65 77 120 135 100 104 116 132 75 138 -14 2 -47 -23 -111
-88 -50 -49 -96 -90 -102 -90 -14 0 -52 54 -97 141 -19 35 -54 175 -54 211 0
22 10 38 37 61 21 18 58 51 82 75 24 23 46 42 50 42 12 0 62 92 59 109 -6 31
-36 21 -89 -31 -91 -90 -105 -100 -128 -93 -19 6 -81 86 -81 105 0 4 -3 10 -7
12 -5 2 -23 33 -41 70 -40 82 -37 90 58 154 36 24 85 60 110 79 25 19 50 35
57 35 7 0 16 6 20 14 4 8 28 21 53 30 70 24 139 12 235 -41z m-7115 -64 c171
-33 207 -47 283 -113 80 -68 96 -95 80 -134 -6 -15 -25 -60 -42 -100 -17 -40
-33 -101 -37 -136 -6 -61 -5 -64 25 -95 38 -39 39 -58 5 -71 -14 -6 -27 -10
-29 -10 -3 0 -13 20 -24 44 -17 36 -31 49 -83 76 -65 33 -190 77 -293 104 -33
8 -98 25 -145 36 -120 31 -147 45 -160 86 -15 45 2 149 33 204 34 62 107 151
130 159 12 5 47 0 86 -11 36 -10 113 -28 171 -39z m8265 -54 c67 -44 149 -145
193 -238 18 -38 41 -81 51 -96 31 -46 133 -315 153 -406 19 -86 18 -365 -1
-437 -35 -130 -40 -133 -226 -147 -82 -6 -175 -18 -205 -26 -102 -27 -138 -13
-91 34 42 42 53 81 58 206 5 96 3 127 -9 150 -9 17 -19 50 -22 75 -41 269 -99
446 -184 559 -14 19 -54 66 -89 104 -35 39 -63 79 -63 89 0 21 26 33 123 55
45 10 90 30 135 59 61 41 70 44 112 38 25 -3 54 -12 65 -19z m-1726 -201 c26
-49 63 -111 84 -138 34 -44 36 -51 24 -70 -15 -22 -135 -93 -175 -103 -28 -7
-39 -30 -23 -46 17 -17 15 -22 -44 -88 -30 -34 -55 -65 -55 -69 0 -15 -32 -20
-53 -8 -72 37 -108 136 -108 291 -1 89 10 129 44 166 52 56 226 166 250 158 6
-2 31 -43 56 -93z m-4664 -163 c22 -10 49 -27 60 -37 12 -11 45 -31 75 -46 81
-41 194 -129 198 -154 2 -12 -12 -46 -31 -75 -19 -30 -53 -89 -77 -132 -53
-98 -69 -108 -105 -64 -56 68 -85 110 -85 123 0 8 -4 14 -8 14 -25 0 -132 279
-132 343 0 47 41 58 105 28z m-2239 -10 c26 -8 194 -49 226 -55 41 -8 169 -52
208 -72 53 -26 117 -91 154 -155 48 -85 28 -214 -43 -266 -41 -31 -57 -29
-121 12 -32 20 -68 35 -86 35 -17 0 -67 9 -110 19 -44 11 -106 22 -139 26 -33
3 -77 11 -97 16 -117 29 -117 29 -137 67 -47 92 -47 143 1 274 35 97 71 122
144 99z m7004 -164 c0 -7 14 -55 31 -109 30 -94 65 -160 121 -226 26 -31 27
-35 14 -60 -8 -15 -42 -52 -77 -82 -86 -75 -127 -116 -176 -175 l-41 -50 -46
22 c-88 43 -153 179 -144 303 6 85 46 160 141 264 95 105 177 157 177 113z
m-5861 -61 c13 -20 43 -45 76 -62 51 -27 55 -32 65 -79 35 -161 -20 -408 -112
-506 -30 -32 -98 -133 -98 -146 0 -8 -102 -155 -142 -204 -52 -64 -164 -154
-222 -179 -58 -24 -97 -20 -171 20 -27 15 -79 43 -115 62 -62 33 -109 51 -138
53 -17 0 -35 32 -24 39 5 3 26 9 48 15 198 47 251 97 350 331 15 36 33 70 41
76 7 6 9 14 5 18 -4 4 0 13 8 19 9 7 29 36 46 64 16 29 70 96 119 149 57 61
96 113 107 142 9 24 24 52 32 61 14 15 55 100 69 144 10 27 33 20 56 -17z
m1531 -72 c32 -27 197 -128 263 -161 76 -37 88 -54 64 -92 -9 -14 -24 -42 -34
-61 -9 -19 -31 -55 -49 -80 -17 -25 -38 -58 -46 -75 -8 -16 -19 -39 -25 -50
-6 -11 -23 -45 -38 -75 -14 -30 -45 -86 -69 -125 -35 -59 -46 -70 -66 -67 -13
1 -27 6 -30 10 -7 12 -125 90 -152 102 -13 6 -41 21 -63 35 -22 14 -59 34 -82
46 -23 11 -44 26 -46 34 -3 7 9 41 26 76 18 35 40 82 50 104 9 22 23 49 30 60
35 54 75 114 98 145 14 19 36 60 49 90 42 98 76 121 120 84z m-2640 -204 c202
-35 234 -43 275 -63 122 -60 151 -130 101 -239 -36 -78 -89 -135 -137 -148
-38 -11 -115 -4 -199 16 -33 8 -117 23 -156 28 -67 9 -81 32 -109 177 -11 62
-11 78 4 141 20 82 50 123 84 114 12 -3 74 -15 137 -26z m7131 -197 c22 -67
78 -151 151 -229 25 -26 37 -46 33 -56 -4 -9 -30 -35 -58 -59 -29 -23 -74 -67
-100 -96 -55 -59 -76 -65 -142 -34 -85 39 -145 127 -145 213 0 45 6 63 36 108
42 64 171 189 196 190 10 0 21 -14 29 -37z m176 -381 c10 -6 42 -73 72 -147 6
-16 28 -41 48 -55 20 -13 42 -39 49 -57 25 -58 58 -60 113 -7 13 13 28 24 32
24 17 0 9 -20 -18 -43 -15 -12 -44 -37 -65 -55 -79 -70 -170 -98 -230 -69 -47
22 -71 48 -109 114 -29 50 -34 67 -34 127 l0 69 59 53 c62 57 64 58 83 46z"/>
<path d="M13196 7025 c-9 -22 -25 -46 -36 -53 -17 -10 -23 -9 -40 8 -11 11
-20 29 -20 40 0 11 -5 20 -11 20 -7 0 -9 -11 -6 -27 3 -16 12 -71 21 -123 44
-254 61 -310 95 -310 31 0 41 54 42 211 1 144 -6 231 -21 259 -6 11 -12 4 -24
-25z"/>
<path d="M11447 6484 c-7 -12 8 -81 77 -369 18 -77 31 -79 249 -28 37 9 67 20
67 24 0 13 -32 11 -146 -10 -56 -9 -111 -14 -122 -10 -14 5 -27 32 -46 89 -14
45 -26 90 -26 100 0 10 -6 45 -14 77 -8 32 -18 76 -23 98 -5 22 -12 35 -16 29z"/>
<path d="M13410 6313 c-137 -92 -145 -92 -115 -2 26 76 5 100 -53 61 -15 -10
-40 -24 -57 -32 -16 -8 -54 -29 -83 -47 -29 -18 -56 -33 -60 -33 -5 0 -18 -9
-30 -21 -30 -28 -18 -45 16 -23 51 34 147 94 176 110 44 24 50 7 27 -81 -29
-113 -13 -133 56 -72 21 19 61 49 88 67 28 18 66 47 87 64 20 17 48 39 62 49
24 16 36 48 19 46 -5 0 -64 -39 -133 -86z"/>
<path d="M12103 6258 c-6 -7 -16 -37 -23 -65 -12 -55 -51 -111 -107 -158 -39
-31 -37 -37 34 -110 26 -28 62 -67 80 -88 30 -36 56 -47 67 -28 11 17 -13 56
-73 121 -34 35 -61 68 -61 73 0 4 16 25 35 45 64 67 100 169 73 205 -12 15
-16 16 -25 5z"/>
<path d="M11630 5910 c-90 -66 -140 -111 -140 -126 0 -22 14 -17 68 26 65 52
75 52 66 -5 -5 -35 -3 -46 9 -51 31 -12 204 103 184 122 -3 4 -31 -4 -61 -17
-62 -25 -75 -21 -58 16 16 34 15 75 -1 75 -7 0 -37 -18 -67 -40z"/>
<path d="M12925 5869 c-27 -15 -81 -35 -120 -45 -38 -9 -124 -33 -190 -54 -66
-21 -176 -54 -245 -74 -69 -20 -149 -43 -177 -52 -33 -9 -53 -21 -53 -30 0
-21 35 -18 131 11 46 15 138 41 204 60 66 18 163 45 215 60 235 66 314 100
308 132 -5 25 -18 23 -73 -8z"/>
<path d="M13491 7855 c-61 -146 -67 -265 -17 -362 32 -65 60 -84 123 -85 130
-3 227 132 208 290 -8 69 -14 81 -53 101 -17 9 -68 42 -114 74 -46 31 -91 57
-99 57 -11 0 -27 -26 -48 -75z m202 -54 c30 -12 67 -49 67 -69 0 -30 -34 -84
-62 -98 -27 -14 -31 -14 -49 2 -24 21 -42 87 -33 117 7 25 33 57 45 57 4 0 19
-4 32 -9z"/>
<path d="M15439 7555 c-96 -35 -175 -107 -220 -200 -62 -130 -61 -233 5 -331
64 -95 167 -139 288 -124 83 10 132 33 189 90 71 71 93 138 94 280 0 131 -8
153 -77 220 -70 67 -195 96 -279 65z"/>
<path d="M14159 7098 c-18 -29 -52 -77 -76 -106 -47 -59 -47 -64 4 -117 16
-16 66 -76 112 -132 45 -57 88 -106 94 -110 7 -5 28 -27 46 -51 66 -84 122
-93 186 -29 56 55 69 102 68 250 0 139 0 139 -112 182 -87 33 -121 53 -200
118 -33 26 -66 47 -74 47 -8 0 -30 -24 -48 -52z m256 -148 c44 -22 87 -40 97
-40 13 0 17 -16 23 -86 12 -134 -19 -241 -74 -259 -23 -7 -91 31 -91 51 0 8
-4 14 -9 14 -4 0 -21 19 -36 43 -15 23 -40 53 -55 67 -14 14 -36 41 -48 61
-23 39 -22 46 13 109 16 28 74 80 90 80 6 0 46 -18 90 -40z"/>
<path d="M16350 6655 c-6 -14 -10 -80 -10 -145 0 -65 -3 -125 -6 -134 -7 -19
-57 -21 -72 -3 -5 6 -10 48 -11 92 -1 44 -4 95 -8 113 -8 49 -23 20 -23 -48
-2 -130 -42 -362 -95 -550 -9 -30 -19 -68 -24 -85 -4 -16 -20 -57 -36 -90 -15
-33 -33 -76 -40 -95 -18 -48 -135 -290 -179 -370 -35 -63 -35 -64 -7 -30 17
19 58 87 91 150 34 63 73 127 87 142 16 17 26 40 28 65 2 22 12 59 24 84 42
90 103 277 127 389 13 63 26 125 29 137 5 22 59 53 91 53 22 0 54 -38 54 -63
0 -27 68 -171 109 -230 16 -23 51 -60 79 -82 77 -61 81 -79 39 -167 -52 -107
-67 -144 -67 -161 0 -9 -4 -19 -10 -22 -5 -3 -10 -17 -10 -31 0 -31 21 -39
127 -48 l83 -6 83 79 c72 69 89 93 131 181 27 56 61 110 75 121 14 11 64 48
111 83 160 119 236 263 284 542 7 41 9 74 6 74 -4 0 -15 -26 -25 -57 -93 -313
-123 -377 -218 -474 -101 -104 -207 -155 -344 -166 -70 -6 -75 -4 -156 35
-102 49 -154 101 -201 197 -40 82 -56 135 -56 188 0 21 -7 53 -15 73 -9 23
-15 75 -16 154 -1 121 -10 154 -29 105z m477 -807 c32 5 61 8 66 5 30 -18 -24
-133 -96 -205 -49 -48 -67 -53 -67 -17 0 18 -13 23 -51 20 -19 -2 -79 51 -79
70 0 26 54 121 74 128 11 5 37 4 57 -2 25 -6 59 -6 96 1z"/>
<path d="M16240 5576 c0 -2 17 -15 38 -27 20 -12 56 -43 79 -68 24 -25 52 -55
63 -67 11 -12 20 -25 20 -29 0 -4 15 -26 33 -49 52 -64 60 -83 48 -118 l-11
-30 38 5 c20 3 51 9 68 12 27 6 33 3 59 -37 39 -57 63 -78 90 -78 12 0 25 -3
29 -7 11 -11 79 -33 104 -33 12 0 22 -4 22 -10 0 -5 8 -10 17 -10 37 0 -10 26
-110 61 -100 35 -103 36 -129 84 -33 60 -52 75 -97 75 -45 0 -52 5 -86 60 -15
24 -41 58 -56 75 -16 16 -29 34 -29 39 0 14 -111 119 -147 139 -31 17 -43 21
-43 13z"/>
<path d="M17670 4682 c0 -9 84 -52 103 -52 6 0 30 -14 51 -30 22 -17 45 -30
52 -30 12 0 24 -22 24 -45 0 -7 -13 -18 -30 -25 -16 -7 -30 -16 -30 -21 0 -9
28 -1 48 14 8 7 26 6 52 -2 59 -18 73 -51 78 -195 6 -150 -8 -223 -44 -232
-24 -6 -109 31 -175 77 -15 11 -53 31 -85 47 -90 42 -124 71 -124 104 0 16 4
27 8 24 4 -3 21 10 36 29 16 18 41 39 57 45 16 7 29 15 29 19 0 4 25 18 55 31
30 13 55 28 55 32 0 11 -5 10 -45 -6 -85 -36 -301 -226 -427 -376 -104 -124
-167 -204 -179 -229 -8 -14 -24 -36 -36 -48 -30 -29 -32 -59 -3 -41 11 7 20
18 20 25 0 7 18 31 40 55 22 24 40 47 40 51 0 5 6 14 13 22 6 7 32 36 57 65
25 28 54 62 65 74 11 12 49 54 84 94 38 42 72 72 83 72 11 0 50 -19 86 -43 73
-47 167 -95 252 -127 30 -12 69 -32 85 -44 17 -12 50 -30 75 -41 25 -11 84
-45 132 -77 48 -32 90 -58 93 -58 31 0 -64 74 -152 118 -87 44 -95 60 -80 163
19 125 14 246 -13 328 -12 39 -30 76 -39 84 -17 15 -166 92 -236 122 -22 9
-48 21 -57 26 -10 5 -18 6 -18 1z"/>
</g>
</svg>
